<svg xmlns="http://www.w3.org/2000/svg" viewBox="0 0 1378.00 1380.00"><path fill="#4caf50" stroke="#000000" fill-opacity="1" stroke-width="1" stroke-opacity="1" title="Ellipse 7" cx="3296" cy="4901" rx="733" ry="733" id="tSvg12ed3f080bf" d="M1 690C1 1219.6026 574.3333 1550.6041 1033 1285.8029C1245.8679 1162.9082 1377 935.7894 1377 690C1377 160.3974 803.6667 -170.6041 345 94.1971C132.1321 217.0918 1 444.2106 1 690Z" style=""/><ellipse fill="#0f421a" fill-opacity="1" stroke="#000000" stroke-opacity="1" stroke-width="1" id="tSvg14222d305d7" title="Ellipse 6" cx="689" cy="688" rx="540" ry="540" style="transform: rotate(0deg);" transform-origin="5049 5029"/><ellipse fill="#4caf50" fill-opacity="1" stroke="#000000" stroke-opacity="1" stroke-width="1" id="tSvg886a8baed7" title="Ellipse 2" cx="464" cy="590" rx="58" ry="58" style="transform: rotate(0deg);" transform-origin="4824 4931"/><ellipse fill="#4caf50" fill-opacity="1" stroke="#000000" stroke-opacity="1" stroke-width="1" id="tSvg17f322fa828" title="Ellipse 4" cx="765" cy="485" rx="58" ry="58" style="transform: rotate(0deg);" transform-origin="5125 4826"/><ellipse fill="#4caf50" fill-opacity="1" stroke="#000000" stroke-opacity="1" stroke-width="1" id="tSvg534bab9e35" title="Ellipse 5" cx="916" cy="590" rx="58" ry="58" style="transform: rotate(0deg);" transform-origin="5276 4931"/><path fill="#4caf50" stroke="#000000" fill-opacity="1" stroke-width="1" stroke-opacity="1" title="Ellipse 1" cx="4998" cy="5123" rx="169" ry="169" transform-origin="4998 5123" id="tSvg750d5ad1a1" d="M797.9273 890.8059C760.0156 912.7231 716.1083 903.4454 688.9614 876.1284C683.3878 881.7758 677.0224 886.7291 669.9705 890.8059C624.8242 916.9055 571.1758 898.7686 547.4528 858.6106C547.284 858.6887 547.1154 858.767 546.9471 858.8454C531.2732 833.7104 522 803.6983 522 770.4695C522 710.7276 553.83 655.5237 605.5 625.6527C716.8333 561.2897 856 641.7435 856 770.4695C856 805.4062 845.1147 838.791 825.7419 866.465C825.612 866.3924 825.4819 866.3198 825.3517 866.2474C818.1156 876.083 808.844 884.4948 797.9273 890.8059Z" style=""/><path fill="#4caf50" stroke="#000000" fill-opacity="1" stroke-width="1" stroke-opacity="1" title="Ellipse 3" cx="4964" cy="4826" rx="58" ry="58" id="tSvg1d42cc55ef" d="M546 485C546 529.6484 594.3333 557.5537 633 535.2295C650.9453 524.8688 662 505.7214 662 485C662 440.3516 613.6667 412.4463 575 434.7705C557.0547 445.1312 546 464.2786 546 485Z"/></svg>