<svg width="87" height="87" viewBox="0 0 87 87" fill="none" xmlns="http://www.w3.org/2000/svg">
<g clip-path="url(#clip0_21_27)">
<path d="M0.0631332 43.5C0.0631332 76.888 36.2605 97.7555 65.2184 81.0615C78.6578 73.3138 86.9369 58.9954 86.9369 43.5C86.9369 10.112 50.7395 -10.7555 21.7816 5.93851C8.34216 13.6862 0.0631332 28.0046 0.0631332 43.5Z" fill="#4CAF50" fill-opacity="0.9" stroke="black"/>
<path d="M43.5 77.4174C62.329 77.4174 77.5929 62.1756 77.5929 43.3739C77.5929 24.5722 62.329 9.33043 43.5 9.33043C24.671 9.33043 9.40711 24.5722 9.40711 43.3739C9.40711 62.1756 24.671 77.4174 43.5 77.4174Z" fill="#0F421A" stroke="black"/>
<path d="M29.5 34C31.433 34 33 32.2091 33 30C33 27.7909 31.433 26 29.5 26C27.567 26 26 27.7909 26 30C26 32.2091 27.567 34 29.5 34Z" fill="#4CAF50" fill-opacity="0.9" stroke="black"/>
<path d="M48.2983 25.2326C50.3206 25.2326 51.9601 23.5955 51.9601 21.5761C51.9601 19.5566 50.3206 17.9196 48.2983 17.9196C46.2759 17.9196 44.6364 19.5566 44.6364 21.5761C44.6364 23.5955 46.2759 25.2326 48.2983 25.2326Z" fill="#4CAF50" fill-opacity="0.9" stroke="black"/>
<path d="M57.8316 32.8522C59.854 32.8522 61.4935 31.2151 61.4935 29.1957C61.4935 27.1762 59.854 25.5391 57.8316 25.5391C55.8093 25.5391 54.1698 27.1762 54.1698 29.1957C54.1698 31.2151 55.8093 32.8522 57.8316 32.8522Z" fill="#4CAF50" fill-opacity="0.9" stroke="black"/>
<path d="M50.4207 48.1443C48.0271 49.526 45.255 48.9411 43.5411 47.219C43.1892 47.575 42.7873 47.8873 42.3421 48.1443C39.4918 49.7897 36.1047 48.6463 34.607 46.1146C34.5963 46.1195 34.5857 46.1244 34.575 46.1294C33.5855 44.5448 33 42.6527 33 40.5579C33 36.7915 35.0096 33.3113 38.2718 31.4281C45.3008 27.3704 54.0871 32.4425 54.0871 40.5579C54.0871 42.7604 53.3998 44.8651 52.1767 46.6098C52.1685 46.6052 52.1603 46.6006 52.1521 46.596C51.6953 47.2161 51.1099 47.7464 50.4207 48.1443Z" fill="#4CAF50" fill-opacity="0.9" stroke="black"/>
<path d="M25.179 63H24.2557L26.9261 55.7273H27.8352L30.5057 63H29.5824L27.4091 56.8778H27.3523L25.179 63ZM25.5199 60.1591H29.2415V60.9403H25.5199V60.1591ZM32.3629 59.7188V63H31.5249V57.5455H32.3345V58.3977H32.4055C32.5334 58.1207 32.7275 57.8982 32.9879 57.7301C33.2483 57.5597 33.5845 57.4744 33.9964 57.4744C34.3658 57.4744 34.6889 57.5502 34.9659 57.7017C35.2429 57.8509 35.4583 58.0781 35.6122 58.3835C35.7661 58.6866 35.843 59.0701 35.843 59.5341V63H35.005V59.5909C35.005 59.1624 34.8937 58.8286 34.6712 58.5895C34.4486 58.348 34.1432 58.2273 33.755 58.2273C33.4875 58.2273 33.2483 58.2853 33.0376 58.4013C32.8293 58.5173 32.6648 58.6866 32.544 58.9091C32.4233 59.1316 32.3629 59.4015 32.3629 59.7188ZM37.3745 63V57.5455H38.2125V63H37.3745ZM37.8006 56.6364C37.6373 56.6364 37.4964 56.5807 37.378 56.4695C37.262 56.3582 37.204 56.2244 37.204 56.0682C37.204 55.9119 37.262 55.7782 37.378 55.6669C37.4964 55.5556 37.6373 55.5 37.8006 55.5C37.964 55.5 38.1036 55.5556 38.2196 55.6669C38.338 55.7782 38.3972 55.9119 38.3972 56.0682C38.3972 56.2244 38.338 56.3582 38.2196 56.4695C38.1036 56.5807 37.964 56.6364 37.8006 56.6364Z" fill="#A8E6A3"/>
<path d="M44.918 63H42.6737V55.7273H45.0174C45.7229 55.7273 46.3266 55.8729 46.8285 56.1641C47.3304 56.4529 47.7151 56.8684 47.9826 57.4105C48.2501 57.9503 48.3839 58.5966 48.3839 59.3494C48.3839 60.107 48.2489 60.7592 47.979 61.3061C47.7092 61.8506 47.3162 62.2696 46.8001 62.5632C46.284 62.8544 45.6566 63 44.918 63ZM43.5543 62.2188H44.8612C45.4625 62.2188 45.9608 62.1027 46.3562 61.8707C46.7515 61.6387 47.0463 61.3085 47.2404 60.88C47.4345 60.4515 47.5316 59.9413 47.5316 59.3494C47.5316 58.7623 47.4357 58.2569 47.244 57.8331C47.0522 57.407 46.7657 57.0803 46.3846 56.853C46.0034 56.6233 45.5288 56.5085 44.9606 56.5085H43.5543V62.2188ZM51.9634 63.1136C51.471 63.1136 51.0389 62.9964 50.6673 62.7621C50.2979 62.5277 50.0091 62.1998 49.8008 61.7784C49.5948 61.357 49.4918 60.8646 49.4918 60.3011C49.4918 59.733 49.5948 59.237 49.8008 58.8132C50.0091 58.3894 50.2979 58.0604 50.6673 57.826C51.0389 57.5916 51.471 57.4744 51.9634 57.4744C52.4558 57.4744 52.8867 57.5916 53.256 57.826C53.6277 58.0604 53.9165 58.3894 54.1225 58.8132C54.3308 59.237 54.435 59.733 54.435 60.3011C54.435 60.8646 54.3308 61.357 54.1225 61.7784C53.9165 62.1998 53.6277 62.5277 53.256 62.7621C52.8867 62.9964 52.4558 63.1136 51.9634 63.1136ZM51.9634 62.3608C52.3375 62.3608 52.6452 62.2649 52.8867 62.0732C53.1282 61.8814 53.3069 61.6293 53.4229 61.3168C53.5389 61.0043 53.5969 60.6657 53.5969 60.3011C53.5969 59.9366 53.5389 59.5968 53.4229 59.282C53.3069 58.9671 53.1282 58.7126 52.8867 58.5185C52.6452 58.3243 52.3375 58.2273 51.9634 58.2273C51.5894 58.2273 51.2816 58.3243 51.0401 58.5185C50.7987 58.7126 50.6199 58.9671 50.5039 59.282C50.3879 59.5968 50.3299 59.9366 50.3299 60.3011C50.3299 60.6657 50.3879 61.0043 50.5039 61.3168C50.6199 61.6293 50.7987 61.8814 51.0401 62.0732C51.2816 62.2649 51.5894 62.3608 51.9634 62.3608ZM55.7143 65.0455V57.5455H56.524V58.4119H56.6234C56.685 58.3172 56.7702 58.1965 56.8791 58.0497C56.9904 57.9006 57.149 57.768 57.3549 57.652C57.5633 57.5336 57.845 57.4744 58.2001 57.4744C58.6594 57.4744 59.0642 57.5893 59.4146 57.8189C59.765 58.0485 60.0384 58.3741 60.2349 58.7955C60.4314 59.2169 60.5297 59.714 60.5297 60.2869C60.5297 60.8646 60.4314 61.3653 60.2349 61.7891C60.0384 62.2105 59.7662 62.5372 59.4181 62.7692C59.0701 62.9988 58.6689 63.1136 58.2143 63.1136C57.8639 63.1136 57.5834 63.0556 57.3727 62.9396C57.162 62.8213 56.9998 62.6875 56.8862 62.5384C56.7725 62.3868 56.685 62.2614 56.6234 62.1619H56.5524V65.0455H55.7143ZM56.5382 60.2727C56.5382 60.6847 56.5985 61.0481 56.7193 61.3629C56.84 61.6754 57.0164 61.9205 57.2484 62.098C57.4804 62.2732 57.7645 62.3608 58.1007 62.3608C58.4511 62.3608 58.7434 62.2685 58.9778 62.0838C59.2145 61.8968 59.3921 61.6458 59.5105 61.331C59.6312 61.0137 59.6916 60.661 59.6916 60.2727C59.6916 59.8892 59.6324 59.5436 59.514 59.2358C59.398 58.9257 59.2217 58.6806 58.9849 58.5007C58.7505 58.3184 58.4558 58.2273 58.1007 58.2273C57.7598 58.2273 57.4733 58.3137 57.2413 58.4865C57.0093 58.657 56.8341 58.8961 56.7157 59.2038C56.5974 59.5092 56.5382 59.8655 56.5382 60.2727ZM64.1802 57.5455V58.2557H61.3535V57.5455H64.1802ZM62.1774 56.2386H63.0154V61.4375C63.0154 61.6742 63.0498 61.8518 63.1184 61.9702C63.1895 62.0862 63.2794 62.1643 63.3883 62.2045C63.4996 62.2424 63.6168 62.2614 63.7399 62.2614C63.8322 62.2614 63.908 62.2566 63.9672 62.2472C64.0263 62.2353 64.0737 62.2259 64.1092 62.2188L64.2797 62.9716C64.2228 62.9929 64.1435 63.0142 64.0417 63.0355C63.9399 63.0592 63.8109 63.071 63.6547 63.071C63.4179 63.071 63.1859 63.0201 62.9586 62.9183C62.7337 62.8165 62.5467 62.6615 62.3975 62.4531C62.2508 62.2448 62.1774 61.982 62.1774 61.6648V56.2386Z" fill="#4CAF50"/>
<path d="M34.4717 21.5761C34.4717 24.3909 37.5232 26.1501 39.9644 24.7427C41.0974 24.0896 41.7954 22.8824 41.7954 21.5761C41.7954 18.7613 38.7438 17.0021 36.3026 18.4094C35.1696 19.0626 34.4717 20.2697 34.4717 21.5761Z" fill="#4CAF50" fill-opacity="0.9" stroke="black"/>
</g>
<defs>
<clipPath id="clip0_21_27">
<rect width="87" height="87" fill="white"/>
</clipPath>
</defs>
</svg>
